<?xml version="1.0" encoding="UTF-8" standalone="no"?>
<!-- Created with Inkscape (http://www.inkscape.org/) -->
<svg
   xmlns:dc="http://purl.org/dc/elements/1.1/"
   xmlns:cc="http://web.resource.org/cc/"
   xmlns:rdf="http://www.w3.org/1999/02/22-rdf-syntax-ns#"
   xmlns:svg="http://www.w3.org/2000/svg"
   xmlns="http://www.w3.org/2000/svg"
   xmlns:sodipodi="http://sodipodi.sourceforge.net/DTD/sodipodi-0.dtd"
   xmlns:inkscape="http://www.inkscape.org/namespaces/inkscape"
   id="svg2211"
   sodipodi:version="0.32"
   inkscape:version="0.45"
   width="150"
   height="146"
   version="1.0"
   sodipodi:docbase="/home/agude/Desktop"
   sodipodi:docname="Allah11.png"
   sodipodi:modified="true">
  <metadata
     id="metadata2216">
    <rdf:RDF>
      <cc:Work
         rdf:about="">
        <dc:format>image/svg+xml</dc:format>
        <dc:type
           rdf:resource="http://purl.org/dc/dcmitype/StillImage" />
      </cc:Work>
    </rdf:RDF>
  </metadata>
  <defs
     id="defs2214" />
  <sodipodi:namedview
     inkscape:window-height="729"
     inkscape:window-width="1280"
     inkscape:pageshadow="2"
     inkscape:pageopacity="0.0"
     guidetolerance="10.0"
     gridtolerance="10.0"
     objecttolerance="10.0"
     borderopacity="1.0"
     bordercolor="#666666"
     pagecolor="#ffffff"
     id="base"
     inkscape:zoom="2.6986301"
     inkscape:cx="75"
     inkscape:cy="73"
     inkscape:window-x="0"
     inkscape:window-y="24"
     inkscape:current-layer="svg2211" />
  <path
     style="fill:#000000"
     d="M 122.97641,143.40124 C 123.42344,141.9672 124.07078,129.30299 124.41493,115.25854 C 125.0388,89.79967 125.03331,89.723177 122.5785,89.723177 C 120.39746,89.723177 120.1134,90.389511 120.09086,95.558656 C 120.05947,102.75744 117.0018,109.75842 112.08058,113.89934 C 109.18686,116.33425 107.13586,117.03718 102.93484,117.03382 C 93.924056,117.02661 89.286957,112.6795 84.50299,99.754639 C 83.500103,97.04514 83.383619,97.118678 80.831927,102.07227 C 75.014561,113.36551 65.033532,119.7024 57.157412,117.10304 C 48.690736,114.30879 43.634389,106.09873 43.634389,95.145526 C 43.634389,89.482998 46.235076,77.327872 48.970463,70.205668 C 49.604637,68.554459 49.437594,68.225419 48.316821,68.918097 C 45.926147,70.395616 39.31571,85.69175 35.959417,97.512363 C 30.489303,116.77771 27.188899,120.53865 19.32249,116.47077 C 11.876616,112.62036 7.4078584,93.107005 11.647958,82.959026 C 14.048621,77.213438 14.866943,77.956171 13.388014,84.538359 C 12.022117,90.617523 13.587424,99.378684 17.036538,104.95947 C 19.601324,109.10937 22.055607,110.46998 25.184969,109.47675 C 27.436017,108.7623 28.334181,106.41237 31.868874,91.98913 C 34.685564,80.495703 39.48951,70.741874 45.928464,63.442864 C 50.620329,58.124309 53.216241,56.788506 54.578048,58.991963 C 54.936146,59.571376 54.137222,64.642961 52.802671,70.262151 C 51.025104,77.746633 50.481908,83.225082 50.77145,90.747896 C 51.144728,100.44621 51.35554,101.17932 54.564536,103.93886 C 57.504513,106.46704 58.793986,106.79182 64.133687,106.349 C 71.184729,105.76428 74.85366,103.0559 78.69486,95.600037 C 81.803201,89.566687 82.641987,76.689385 80.728062,64.386077 C 79.280109,55.078258 79.305325,54.82999 82.262452,49.275037 C 84.124659,45.776892 85.486848,44.255766 85.841388,45.278508 C 87.325439,49.559516 88.964435,62.57135 89.897873,77.482537 C 91.0472,95.842647 92.789018,101.01104 99.06276,104.67693 C 103.61839,107.33889 109.02412,106.38004 111.59678,102.45369 C 113.28064,99.883789 113.23173,98.605302 110.98923,86.572334 C 109.64787,79.374784 107.26409,69.188352 105.69193,63.935818 L 102.83347,54.385757 L 106.10624,49.225147 L 109.37899,44.064537 L 113.00943,52.713295 C 117.19162,62.676504 117.34113,63.432676 114.70069,61.267122 C 112.95806,59.837917 112.84322,59.97036 113.56768,62.573751 C 114.01107,64.167125 115.48651,69.76133 116.84643,75.00532 C 119.01123,83.353002 119.50829,84.290612 120.83962,82.53763 C 122.23805,80.696302 122.3632,80.744926 122.3971,83.142753 C 122.41736,84.576789 122.95541,85.750091 123.59276,85.750091 C 124.88066,85.750091 125.06761,80.548641 125.34783,36.92026 L 125.53865,7.2109096 L 128.56033,3.3499077 C 130.22226,1.226357 131.78952,-0.26626295 132.04314,0.032974886 C 132.29675,0.33221271 133.89637,7.6168571 135.59784,16.221073 C 137.2993,24.825289 138.99921,33.168771 139.37539,34.762144 C 140.05046,37.621421 140.02235,37.614992 137.21935,34.26897 L 134.37933,30.878754 L 133.56539,74.248156 C 133.11772,98.101332 132.23704,120.92749 131.6083,124.97295 C 130.97957,129.01843 128.91136,135.40641 127.01228,139.16846 C 123.53133,146.06418 121.47354,148.22237 122.97641,143.40124 z M 65.506596,86.908908 C 65.182278,84.74445 64.266662,83.919143 61.885756,83.64519 C 59.673042,83.390589 58.69901,82.614558 58.69901,81.106242 C 58.69901,77.965702 60.837433,77.116988 63.249753,79.30011 C 65.197006,81.062348 65.465632,80.99232 67.259306,78.254812 C 69.321827,75.107009 72.604813,74.289564 72.604813,76.92381 C 72.604813,77.805498 71.561878,78.799614 70.287179,79.132955 C 68.837256,79.512119 67.939057,80.755823 67.888092,82.454856 C 67.843304,83.94856 67.386811,86.213617 66.873675,87.488316 C 66.00797,89.638841 65.909401,89.597064 65.506596,86.908908 z M 98.313909,82.633255 C 97.677545,81.419703 97.62884,79.436361 98.198375,77.928076 C 99.368491,74.829298 100.64703,74.485932 100.35581,77.348668 C 99.958317,81.25645 100.40796,82.204147 102.31277,81.473206 C 103.61666,80.972857 104.0392,81.25575 103.66526,82.378687 C 102.84266,84.84896 99.557725,85.005226 98.313909,82.633255 z M 20.187697,72.456721 C 23.54442,70.893963 26.580926,68.68282 26.935489,67.543068 C 27.290041,66.403317 28.06354,64.565301 28.654362,63.458588 C 29.245185,62.351875 29.728586,60.657105 29.728586,59.692433 C 29.728586,57.046496 31.595672,57.579554 34.279747,60.991803 C 37.490237,65.073278 37.333797,65.866626 32.915332,67.911148 C 30.843947,68.869624 27.063307,70.920307 24.513909,72.468222 C 21.964512,74.016136 18.574972,75.286096 16.981599,75.290355 C 14.770506,75.296264 15.529636,74.625329 20.187697,72.456721 z M 68.143681,63.15316 C 68.035447,61.878461 66.692239,58.14082 65.158765,54.847291 C 62.565217,49.277005 62.428291,47.509131 64.590389,47.509131 C 66.253847,47.509131 69.299635,57.595217 68.821554,61.520594 C 68.55695,63.693205 68.251903,64.427859 68.143681,63.15316 z M 118.9575,49.895155 C 118.9575,48.020721 119.55502,46.117807 120.28531,45.666454 C 121.2198,45.088916 121.38489,45.755216 120.84265,47.915698 C 120.38677,49.732063 120.55435,50.985582 121.25305,50.985582 C 121.90255,50.985582 122.43395,51.50705 122.43395,52.144399 C 122.43395,52.781748 121.65175,53.303216 120.69572,53.303216 C 119.54466,53.303216 118.9575,52.151997 118.9575,49.895155 z M 91.977649,36.366456 C 91.520182,35.908984 91.197869,33.926831 91.261395,31.96167 C 91.368018,28.663469 91.437327,28.604869 92.162468,31.19978 C 93.558136,36.194151 95.775497,35.430976 95.840866,29.93374 L 95.90058,24.9122 L 97.703027,29.257764 C 98.694384,31.647824 99.97118,33.603327 100.54036,33.603327 C 101.87409,33.603327 101.83958,31.180246 100.47514,29.023388 C 99.889599,28.097795 99.711164,26.854043 100.07863,26.259494 C 100.88272,24.958447 103.79387,29.901181 103.8518,32.665825 C 103.87439,33.743572 103.50177,34.856721 103.02376,35.13949 C 101.19189,36.223134 92.769827,37.15863 91.977649,36.366456 z "
     id="path2220" />
</svg>
